<mxfile host="app.diagrams.net" agent="Mozilla/5.0 (Macintosh; Intel Mac OS X 10_15_7) AppleWebKit/537.36 (KHTML, like Gecko) Chrome/131.0.0.0 Safari/537.36" version="25.0.3">
  <diagram name="Page-1" id="VPyLnDZYjEddfBFz_txx">
    <mxGraphModel dx="2723" dy="1625" grid="1" gridSize="10" guides="1" tooltips="1" connect="1" arrows="1" fold="1" page="1" pageScale="1" pageWidth="850" pageHeight="1100" math="0" shadow="0">
      <root>
        <mxCell id="0" />
        <mxCell id="1" parent="0" />
        <mxCell id="vQHX_N-fi60YjF3iRPWU-16" style="edgeStyle=orthogonalEdgeStyle;rounded=0;orthogonalLoop=1;jettySize=auto;html=1;entryX=0;entryY=0.5;entryDx=0;entryDy=0;" edge="1" parent="1" source="vQHX_N-fi60YjF3iRPWU-2" target="vQHX_N-fi60YjF3iRPWU-17">
          <mxGeometry relative="1" as="geometry">
            <mxPoint x="-930" y="-300" as="targetPoint" />
          </mxGeometry>
        </mxCell>
        <mxCell id="vQHX_N-fi60YjF3iRPWU-2" value="Agent Data Model" style="whiteSpace=wrap;html=1;aspect=fixed;fontStyle=1" vertex="1" parent="1">
          <mxGeometry x="-1080" y="-330" width="60" height="60" as="geometry" />
        </mxCell>
        <mxCell id="vQHX_N-fi60YjF3iRPWU-15" style="edgeStyle=orthogonalEdgeStyle;rounded=0;orthogonalLoop=1;jettySize=auto;html=1;entryX=0;entryY=0.25;entryDx=0;entryDy=0;" edge="1" parent="1" target="vQHX_N-fi60YjF3iRPWU-7">
          <mxGeometry relative="1" as="geometry">
            <mxPoint x="-1320" y="-330" as="sourcePoint" />
          </mxGeometry>
        </mxCell>
        <mxCell id="vQHX_N-fi60YjF3iRPWU-12" style="edgeStyle=orthogonalEdgeStyle;rounded=0;orthogonalLoop=1;jettySize=auto;html=1;entryX=0;entryY=0.5;entryDx=0;entryDy=0;" edge="1" parent="1" source="vQHX_N-fi60YjF3iRPWU-7" target="vQHX_N-fi60YjF3iRPWU-2">
          <mxGeometry relative="1" as="geometry" />
        </mxCell>
        <mxCell id="vQHX_N-fi60YjF3iRPWU-7" value="Content Producers" style="shape=process;whiteSpace=wrap;html=1;backgroundOutline=1;fontStyle=1;fillColor=#ffe6cc;strokeColor=#d79b00;" vertex="1" parent="1">
          <mxGeometry x="-1260" y="-330" width="120" height="60" as="geometry" />
        </mxCell>
        <mxCell id="vQHX_N-fi60YjF3iRPWU-10" value="Agent Data Model" style="whiteSpace=wrap;html=1;aspect=fixed;fontStyle=1" vertex="1" parent="1">
          <mxGeometry x="-1070" y="-320" width="60" height="60" as="geometry" />
        </mxCell>
        <mxCell id="vQHX_N-fi60YjF3iRPWU-14" style="edgeStyle=orthogonalEdgeStyle;rounded=0;orthogonalLoop=1;jettySize=auto;html=1;entryX=0;entryY=0.75;entryDx=0;entryDy=0;" edge="1" parent="1" target="vQHX_N-fi60YjF3iRPWU-7">
          <mxGeometry relative="1" as="geometry">
            <mxPoint x="-1320" y="-260" as="sourcePoint" />
          </mxGeometry>
        </mxCell>
        <mxCell id="vQHX_N-fi60YjF3iRPWU-20" style="edgeStyle=orthogonalEdgeStyle;rounded=0;orthogonalLoop=1;jettySize=auto;html=1;entryX=0;entryY=0.5;entryDx=0;entryDy=0;" edge="1" parent="1" source="vQHX_N-fi60YjF3iRPWU-17" target="vQHX_N-fi60YjF3iRPWU-18">
          <mxGeometry relative="1" as="geometry" />
        </mxCell>
        <mxCell id="vQHX_N-fi60YjF3iRPWU-17" value="Content&lt;br&gt;Serving" style="shape=process;whiteSpace=wrap;html=1;backgroundOutline=1;fontStyle=1;fillColor=#f8cecc;strokeColor=#b85450;" vertex="1" parent="1">
          <mxGeometry x="-940" y="-330" width="120" height="60" as="geometry" />
        </mxCell>
        <mxCell id="vQHX_N-fi60YjF3iRPWU-22" style="edgeStyle=orthogonalEdgeStyle;rounded=0;orthogonalLoop=1;jettySize=auto;html=1;entryX=0;entryY=0.5;entryDx=0;entryDy=0;" edge="1" parent="1" source="vQHX_N-fi60YjF3iRPWU-18" target="vQHX_N-fi60YjF3iRPWU-21">
          <mxGeometry relative="1" as="geometry" />
        </mxCell>
        <mxCell id="vQHX_N-fi60YjF3iRPWU-18" value="Agent Data Model" style="whiteSpace=wrap;html=1;aspect=fixed;fontStyle=1" vertex="1" parent="1">
          <mxGeometry x="-750" y="-330" width="60" height="60" as="geometry" />
        </mxCell>
        <mxCell id="vQHX_N-fi60YjF3iRPWU-19" value="Agent Data Model" style="whiteSpace=wrap;html=1;aspect=fixed;fontStyle=1" vertex="1" parent="1">
          <mxGeometry x="-740" y="-320" width="60" height="60" as="geometry" />
        </mxCell>
        <mxCell id="vQHX_N-fi60YjF3iRPWU-23" value="custom&lt;br&gt;functionality" style="edgeStyle=orthogonalEdgeStyle;rounded=0;orthogonalLoop=1;jettySize=auto;html=1;fontStyle=1" edge="1" parent="1" source="vQHX_N-fi60YjF3iRPWU-21">
          <mxGeometry x="-0.0045" y="-20" relative="1" as="geometry">
            <mxPoint x="-390" y="-300" as="targetPoint" />
            <mxPoint x="20" y="-20" as="offset" />
          </mxGeometry>
        </mxCell>
        <mxCell id="vQHX_N-fi60YjF3iRPWU-21" value="Content&lt;br&gt;Consumer" style="shape=process;whiteSpace=wrap;html=1;backgroundOutline=1;fontStyle=1;fillColor=#e1d5e7;strokeColor=#9673a6;" vertex="1" parent="1">
          <mxGeometry x="-620" y="-330" width="120" height="60" as="geometry" />
        </mxCell>
        <mxCell id="vQHX_N-fi60YjF3iRPWU-25" value="GitHub Repo" style="shape=image;html=1;verticalAlign=top;verticalLabelPosition=bottom;labelBackgroundColor=#ffffff;imageAspect=0;aspect=fixed;image=https://cdn4.iconfinder.com/data/icons/ionicons/512/icon-social-github-128.png" vertex="1" parent="1">
          <mxGeometry x="-1380" y="-280" width="40" height="40" as="geometry" />
        </mxCell>
        <mxCell id="vQHX_N-fi60YjF3iRPWU-26" value="Source Code" style="sketch=0;outlineConnect=0;fontColor=#232F3E;gradientColor=none;fillColor=#232F3D;strokeColor=none;dashed=0;verticalLabelPosition=bottom;verticalAlign=top;align=center;html=1;fontSize=12;fontStyle=0;aspect=fixed;pointerEvents=1;shape=mxgraph.aws4.folder;" vertex="1" parent="1">
          <mxGeometry x="-1377.03" y="-351" width="34.06" height="31" as="geometry" />
        </mxCell>
        <mxCell id="vQHX_N-fi60YjF3iRPWU-27" value="Data Layer" style="endArrow=classic;startArrow=classic;html=1;rounded=0;fontStyle=1;fontSize=18;" edge="1" parent="1">
          <mxGeometry y="20" width="50" height="50" relative="1" as="geometry">
            <mxPoint x="-1400" y="-380" as="sourcePoint" />
            <mxPoint x="-1010" y="-380" as="targetPoint" />
            <mxPoint as="offset" />
          </mxGeometry>
        </mxCell>
        <mxCell id="vQHX_N-fi60YjF3iRPWU-28" value="Service Layer" style="endArrow=classic;startArrow=classic;html=1;rounded=0;fontStyle=1;fontSize=18;" edge="1" parent="1">
          <mxGeometry y="20" width="50" height="50" relative="1" as="geometry">
            <mxPoint x="-1080" y="-400" as="sourcePoint" />
            <mxPoint x="-680" y="-400" as="targetPoint" />
            <mxPoint as="offset" />
          </mxGeometry>
        </mxCell>
        <mxCell id="vQHX_N-fi60YjF3iRPWU-29" value="Application Layer" style="endArrow=classic;startArrow=classic;html=1;rounded=0;fontStyle=1;fontSize=18;" edge="1" parent="1">
          <mxGeometry y="20" width="50" height="50" relative="1" as="geometry">
            <mxPoint x="-760" y="-420" as="sourcePoint" />
            <mxPoint x="-390" y="-420" as="targetPoint" />
            <mxPoint as="offset" />
          </mxGeometry>
        </mxCell>
      </root>
    </mxGraphModel>
  </diagram>
</mxfile>
